<svg width="140" height="31" viewBox="0 0 140 31" fill="none" xmlns="http://www.w3.org/2000/svg">
<path d="M36.8959 25V8.632H38.6959V23.512H46.0639V25H36.8959ZM57.7899 13.768V25H56.1579V23.128C55.7739 23.848 55.2619 24.408 54.6219 24.808C53.9979 25.192 53.2699 25.384 52.4379 25.384C51.6539 25.384 50.9259 25.224 50.2539 24.904C49.5979 24.584 49.0699 24.112 48.6699 23.488C48.2859 22.864 48.0939 22.128 48.0939 21.28V13.768H49.7259V20.56C49.7259 22.784 50.7179 23.896 52.7019 23.896C53.8539 23.896 54.7179 23.488 55.2939 22.672C55.8699 21.856 56.1579 20.76 56.1579 19.384V13.768H57.7899ZM71.2566 13.768V25H69.6246V23.344C69.1606 23.984 68.5926 24.488 67.9206 24.856C67.2486 25.208 66.5126 25.384 65.7126 25.384C64.6406 25.384 63.6806 25.128 62.8326 24.616C61.9846 24.104 61.3206 23.392 60.8406 22.48C60.3606 21.568 60.1206 20.528 60.1206 19.36C60.1206 18.208 60.3526 17.184 60.8166 16.288C61.2966 15.376 61.9526 14.664 62.7846 14.152C63.6326 13.64 64.5926 13.384 65.6646 13.384C66.4806 13.384 67.2246 13.568 67.8966 13.936C68.5846 14.288 69.1606 14.792 69.6246 15.448V13.768H71.2566ZM65.6646 23.896C66.4326 23.896 67.1126 23.704 67.7046 23.32C68.3126 22.936 68.7846 22.4 69.1206 21.712C69.4566 21.024 69.6246 20.248 69.6246 19.384C69.6246 18.52 69.4566 17.744 69.1206 17.056C68.7846 16.368 68.3126 15.832 67.7046 15.448C67.1126 15.064 66.4326 14.872 65.6646 14.872C64.9126 14.872 64.2406 15.064 63.6486 15.448C63.0566 15.832 62.5926 16.368 62.2566 17.056C61.9206 17.728 61.7526 18.496 61.7526 19.36C61.7526 20.24 61.9206 21.024 62.2566 21.712C62.5926 22.4 63.0566 22.936 63.6486 23.32C64.2406 23.704 64.9126 23.896 65.6646 23.896ZM80.7497 25.384C79.3737 25.384 78.1817 25.048 77.1737 24.376C76.1817 23.688 75.4137 22.712 74.8697 21.448C74.3417 20.168 74.0777 18.64 74.0777 16.864C74.0777 15.072 74.3337 13.536 74.8457 12.256C75.3737 10.96 76.1177 9.976 77.0777 9.304C78.0537 8.616 79.2057 8.272 80.5337 8.272C81.8937 8.272 83.0537 8.576 84.0137 9.184C84.9897 9.776 85.7497 10.616 86.2937 11.704L84.8537 12.544C84.3417 11.6 83.7417 10.928 83.0537 10.528C82.3657 10.112 81.5257 9.904 80.5337 9.904C79.1097 9.904 77.9897 10.52 77.1737 11.752C76.3737 12.968 75.9737 14.664 75.9737 16.84C75.9737 18.264 76.1577 19.496 76.5257 20.536C76.8937 21.576 77.4217 22.376 78.1097 22.936C78.7977 23.48 79.5977 23.752 80.5097 23.752C81.6457 23.752 82.5257 23.504 83.1497 23.008C83.7897 22.496 84.3817 21.704 84.9257 20.632L86.4377 21.544C85.8617 22.792 85.0937 23.744 84.1337 24.4C83.1897 25.056 82.0617 25.384 80.7497 25.384ZM94.3209 13.384C94.7049 13.384 95.0729 13.44 95.4249 13.552V15.04C95.0889 14.88 94.7209 14.8 94.3209 14.8C93.6329 14.8 92.9929 14.992 92.4009 15.376C91.8089 15.76 91.3289 16.32 90.9609 17.056C90.6089 17.776 90.4329 18.632 90.4329 19.624V25H88.8009V13.768H90.4329V16.024C90.8649 15.192 91.4089 14.544 92.0649 14.08C92.7369 13.616 93.4889 13.384 94.3209 13.384ZM104.662 13.768H106.198L100.126 29.8H98.4938L100.27 25.216L95.6618 13.768H97.3658L101.086 23.08L104.662 13.768ZM113.283 13.384C114.355 13.384 115.315 13.64 116.163 14.152C117.011 14.664 117.675 15.376 118.155 16.288C118.635 17.2 118.875 18.24 118.875 19.408C118.875 20.56 118.635 21.592 118.155 22.504C117.691 23.4 117.035 24.104 116.187 24.616C115.355 25.128 114.403 25.384 113.331 25.384C112.515 25.384 111.763 25.208 111.075 24.856C110.403 24.488 109.835 23.976 109.371 23.32V29.8H107.739V13.768H109.371V15.424C109.835 14.784 110.403 14.288 111.075 13.936C111.747 13.568 112.483 13.384 113.283 13.384ZM113.331 23.896C114.083 23.896 114.755 23.704 115.347 23.32C115.939 22.936 116.403 22.408 116.739 21.736C117.075 21.048 117.243 20.272 117.243 19.408C117.243 18.528 117.075 17.744 116.739 17.056C116.403 16.368 115.939 15.832 115.347 15.448C114.755 15.064 114.083 14.872 113.331 14.872C112.563 14.872 111.875 15.064 111.267 15.448C110.675 15.832 110.211 16.368 109.875 17.056C109.539 17.744 109.371 18.52 109.371 19.384C109.371 20.248 109.539 21.024 109.875 21.712C110.211 22.4 110.675 22.936 111.267 23.32C111.875 23.704 112.563 23.896 113.331 23.896ZM121.768 25V15.256H119.848V13.768H121.768V10.048H123.4V13.768H125.992V15.256H123.4V25H121.768ZM132.674 25.384C131.602 25.384 130.642 25.128 129.794 24.616C128.946 24.104 128.282 23.392 127.802 22.48C127.322 21.552 127.082 20.512 127.082 19.36C127.082 18.208 127.314 17.184 127.778 16.288C128.258 15.376 128.914 14.664 129.746 14.152C130.594 13.64 131.554 13.384 132.626 13.384C133.698 13.384 134.658 13.64 135.506 14.152C136.354 14.664 137.018 15.376 137.498 16.288C137.978 17.2 138.218 18.232 138.218 19.384C138.218 20.536 137.978 21.568 137.498 22.48C137.034 23.392 136.378 24.104 135.53 24.616C134.698 25.128 133.746 25.384 132.674 25.384ZM132.626 23.896C133.394 23.896 134.074 23.704 134.666 23.32C135.274 22.936 135.746 22.4 136.082 21.712C136.418 21.024 136.586 20.248 136.586 19.384C136.586 18.52 136.418 17.744 136.082 17.056C135.746 16.368 135.274 15.832 134.666 15.448C134.074 15.064 133.394 14.872 132.626 14.872C131.874 14.872 131.202 15.064 130.61 15.448C130.018 15.832 129.554 16.368 129.218 17.056C128.882 17.728 128.714 18.496 128.714 19.36C128.714 20.24 128.882 21.024 129.218 21.712C129.554 22.4 130.018 22.936 130.61 23.32C131.202 23.704 131.874 23.896 132.626 23.896Z" fill="white"/>
<circle cx="14.4999" cy="15.9527" r="13.9527" fill="#07C754"/>
<path d="M8.98227 13.0353L15.5005 3.52209L21.8568 13.0353L19.0594 13.0353C19.0594 13.0353 16.684 24.0877 7.14305 26.3538C12.1375 21.5287 11.9416 13.0353 11.9416 13.0353L8.98227 13.0353Z" fill="white"/>
</svg>
