<svg width="280" height="280" viewBox="0 0 280 280" fill="none" xmlns="http://www.w3.org/2000/svg">
<path d="M52.6631 127.029C52.6631 127.029 91.434 125.477 99.8125 61.7456C107.253 5.14629 172.631 30.9082 191.529 53.4701C216.01 82.6971 202.96 132.974 234.629 139.325C266.299 145.676 245.618 216.292 197.546 209.533C137.746 201.125 152.214 236.069 134.262 250.859C121.379 261.475 68.5515 251.256 66.7908 212.723C65.3092 180.297 51.6315 180.4 41.9366 176.723C27.9544 171.421 19.1441 133.017 52.6631 127.029Z" fill="#DFE0EB"/>
<path d="M184.462 197.807L146.371 160.168L138.828 167.801L176.92 205.44L184.462 197.807Z" fill="#0DE263"/>
<path d="M199.013 207.92L169.378 178.637C169.213 178.474 168.947 178.476 168.784 178.641L157.568 189.992C157.405 190.157 157.406 190.423 157.571 190.586L187.206 219.869C187.371 220.032 187.637 220.031 187.8 219.866L199.017 208.514C199.18 208.349 199.178 208.083 199.013 207.92Z" fill="#07C754"/>
<path d="M112.611 179.097C138.816 179.097 160.06 157.853 160.06 131.648C160.06 105.442 138.816 84.1982 112.611 84.1982C86.4051 84.1982 65.1613 105.442 65.1613 131.648C65.1613 157.853 86.4051 179.097 112.611 179.097Z" fill="#07C754"/>
<path d="M112.611 171.355C134.54 171.355 152.318 153.578 152.318 131.648C152.318 109.718 134.54 91.9407 112.611 91.9407C90.6811 91.9407 72.9036 109.718 72.9036 131.648C72.9036 153.578 90.6811 171.355 112.611 171.355Z" fill="#DFE0EB"/>
<g clip-path="url(#clip0)">
<path d="M207.801 118.55C203.908 129.764 191.661 135.699 180.446 131.805C169.235 127.913 163.3 115.665 167.194 104.451C171.086 93.2361 183.334 87.3006 194.546 91.1935C205.76 95.0866 211.695 107.336 207.801 118.55Z" fill="#0DE263"/>
<path d="M197.247 109.271C197.93 106.459 195.899 104.732 193.024 103.443L194.334 99.6698L192.037 98.8727L190.762 102.547C190.158 102.337 189.537 102.135 188.919 101.934L190.203 98.2358L187.908 97.4388L186.597 101.211C186.097 101.049 185.605 100.888 185.129 100.723L185.133 100.711L181.965 99.6103L181.114 102.064C181.114 102.064 182.821 102.62 182.782 102.642C183.713 102.965 183.828 103.61 183.754 104.107L182.262 108.406C182.326 108.428 182.409 108.46 182.499 108.506C182.423 108.48 182.341 108.451 182.256 108.422L180.165 114.444C180.023 114.723 179.688 115.13 179.038 114.905C179.058 114.942 177.369 114.325 177.369 114.325L175.96 116.91L178.949 117.948C179.505 118.142 180.049 118.341 180.585 118.531L179.261 122.348L181.556 123.145L182.866 119.368C183.492 119.6 184.1 119.817 184.695 120.023L183.389 123.781L185.686 124.578L187.01 120.769C190.948 121.888 193.989 121.854 195.583 118.344C196.868 115.518 195.947 113.738 193.937 112.451C195.505 112.235 196.752 111.329 197.248 109.271L197.248 109.271L197.247 109.271ZM191.201 116.315C190.212 119.168 185.441 117.148 183.884 116.609L185.64 111.553C187.197 112.094 192.234 113.341 191.201 116.315L191.201 116.315ZM192.609 108.81C191.708 111.405 187.74 109.688 186.444 109.238L188.036 104.652C189.333 105.102 193.549 106.104 192.61 108.81L192.609 108.81Z" fill="white"/>
</g>
<g clip-path="url(#clip1)">
<path d="M109.19 210.809C115.159 208.496 118.123 201.78 115.809 195.81C113.495 189.841 106.78 186.877 100.81 189.191C94.8404 191.504 91.8766 198.22 94.1905 204.19C96.5044 210.16 103.22 213.123 109.19 210.809Z" fill="white"/>
<path d="M100.302 187.879C97.9044 188.808 95.8364 190.427 94.3593 192.532C92.8822 194.636 92.0623 197.131 92.0033 199.702C91.9444 202.272 92.649 204.803 94.028 206.973C95.4071 209.143 97.3987 210.855 99.7509 211.893C102.103 212.931 104.71 213.249 107.243 212.805C109.776 212.361 112.12 211.177 113.979 209.401C115.838 207.625 117.129 205.338 117.689 202.828C118.248 200.318 118.051 197.699 117.121 195.302C116.511 193.713 115.593 192.26 114.421 191.025C113.249 189.791 111.845 188.8 110.29 188.108C108.735 187.416 107.058 187.037 105.357 186.993C103.655 186.949 101.961 187.241 100.372 187.851L100.302 187.879ZM105.365 200.331L105.752 205.076L112.503 202.46C112.547 202.441 112.594 202.431 112.642 202.43C112.69 202.43 112.738 202.439 112.782 202.456C112.827 202.474 112.867 202.501 112.902 202.534C112.936 202.568 112.963 202.608 112.982 202.652L113.025 202.763L113.223 205.016C113.234 205.122 113.209 205.228 113.152 205.318C113.095 205.408 113.009 205.475 112.908 205.51L102.577 209.514L102.022 202.943L100.313 204.281L100.23 202.76L101.939 201.423L101.167 192.202C101.157 192.096 101.183 191.99 101.24 191.901C101.297 191.811 101.382 191.744 101.482 191.708L104.094 190.696C104.139 190.677 104.186 190.667 104.234 190.667C104.282 190.666 104.33 190.675 104.374 190.693C104.419 190.711 104.459 190.737 104.493 190.771C104.528 190.804 104.555 190.844 104.574 190.888L104.617 191L105.27 198.781L106.98 197.443L107.115 199.011L105.365 200.331Z" fill="#07C754"/>
</g>
<defs>
<clipPath id="clip0">
<rect width="43" height="43" fill="white" transform="translate(168.015 88.1582) rotate(5.14616)"/>
</clipPath>
<clipPath id="clip1">
<rect width="26" height="26" fill="white" transform="translate(92 187)"/>
</clipPath>
</defs>
</svg>
